<svg xmlns="http://www.w3.org/2000/svg" width="39" height="39" fill="none" viewBox="0 0 118 117"><g filter="url(#filter0_d)"><ellipse cx="59" cy="54.5" fill="#0FF" rx="55" ry="54.5"/></g><g filter="url(#filter1_d)"><path fill="#fff" d="M83.8008 65.8608L82.1224 67.5025C81.5942 68.0154 80.8915 68.2979 80.1404 68.2979C79.3898 68.2979 78.686 68.0154 78.1578 67.5025L59.0117 48.9028L39.8433 67.5231C39.3158 68.036 38.6123 68.3181 37.8617 68.3181C37.1108 68.3181 36.4071 68.036 35.8791 67.5231L34.2002 65.8915C33.1071 64.8307 33.1071 63.1023 34.2002 62.0411L57.0223 39.7911C57.5498 39.279 58.2527 38.918 59.0101 38.918H59.0187C59.7698 38.918 60.4725 39.2794 60.9999 39.7911L83.8008 61.9809C84.3291 62.493 84.619 63.1964 84.6198 63.9257C84.6198 64.6554 84.3291 65.349 83.8008 65.8608Z"/></g><defs><filter id="filter0_d" width="118" height="117" x="0" y="0" color-interpolation-filters="sRGB" filterUnits="userSpaceOnUse"><feFlood flood-opacity="0" result="BackgroundImageFix"/><feColorMatrix in="SourceAlpha" type="matrix" values="0 0 0 0 0 0 0 0 0 0 0 0 0 0 0 0 0 0 127 0"/><feOffset dy="4"/><feGaussianBlur stdDeviation="2"/><feColorMatrix type="matrix" values="0 0 0 0 0 0 0 0 0 0 0 0 0 0 0 0 0 0 0.25 0"/><feBlend in2="BackgroundImageFix" mode="normal" result="effect1_dropShadow"/><feBlend in="SourceGraphic" in2="effect1_dropShadow" mode="normal" result="shape"/></filter><filter id="filter1_d" width="59.239" height="37.4" x="29.38" y="38.918" color-interpolation-filters="sRGB" filterUnits="userSpaceOnUse"><feFlood flood-opacity="0" result="BackgroundImageFix"/><feColorMatrix in="SourceAlpha" type="matrix" values="0 0 0 0 0 0 0 0 0 0 0 0 0 0 0 0 0 0 127 0"/><feOffset dy="4"/><feGaussianBlur stdDeviation="2"/><feColorMatrix type="matrix" values="0 0 0 0 0 0 0 0 0 0 0 0 0 0 0 0 0 0 0.25 0"/><feBlend in2="BackgroundImageFix" mode="normal" result="effect1_dropShadow"/><feBlend in="SourceGraphic" in2="effect1_dropShadow" mode="normal" result="shape"/></filter></defs></svg>